Coordinates
version=1
nRows=17
nColumns=36
inDegrees=yes

Units are S.I. units (second, meters, Newtons, ...)
If the header above contains a line with 'inDegrees', this indicates whether rotational values are in degrees (yes) or radians (no).

endheader
time	pelvis_tilt	pelvis_list	pelvis_rotation	pelvis_tx	pelvis_ty	pelvis_tz	hip_flexion_r	hip_adduction_r	hip_rotation_r	knee_angle_r	knee_angle_r_beta	ankle_angle_r	subtalar_angle_r	mtp_angle_r	hip_flexion_l	hip_adduction_l	hip_rotation_l	knee_angle_l	knee_angle_l_beta	ankle_angle_l	subtalar_angle_l	mtp_angle_l	lumbar_extension	lumbar_bending	lumbar_rotation	arm_flex_r	arm_add_r	arm_rot_r	elbow_flex_r	pro_sup_r	arm_flex_l	arm_add_l	arm_rot_l	elbow_flex_l	pro_sup_l
      1.93000000	     -4.45085892	      2.11778154	     90.29971972	     -0.23753062	      0.95864088	     -1.21684631	     24.69967153	    -10.12728938	     -9.45947453	     45.04055923	      0.78610606	      1.11573494	    -24.78164154	     -7.49999987	     -8.42746589	      9.76829340	    -16.15076065	      6.11805047	      0.10678012	      9.28702704	     16.97454023	     -7.49999987	    -14.47185600	     -4.77724721	     -5.02187183	     -3.79384602	     -4.15829189	    -33.22555775	     50.73475365	     92.51741996	     14.03103720	     -7.94106181	    -25.11740229	     36.72113339	     89.17824675
      1.94000000	     -4.26934170	      2.79755496	     91.44444665	     -0.23981729	      0.95837507	     -1.22801052	     23.95951142	    -10.19304857	    -11.54056309	     41.67965855	      0.72744727	      2.02599740	    -22.40145454	     -7.49999987	    -10.37524538	      9.46819928	    -15.61602962	      5.41049339	      0.09443092	      9.79547739	     18.57794581	     -7.49999987	    -15.45500478	     -4.29469379	     -5.94144393	     -3.95559127	     -3.99039230	    -33.93946655	     50.76073193	     90.87012976	     14.70876994	     -8.72063871	    -21.95701886	     37.65827117	     87.53565091
      1.95000000	     -4.35574641	      2.94761794	     92.03841232	     -0.24082367	      0.95699726	     -1.23889730	     24.00736146	    -10.00541830	    -12.44096618	     38.27606585	      0.66804337	      2.55795376	    -21.17149574	     -7.49999987	    -11.34582381	      9.41753056	    -15.58204988	      5.42741359	      0.09472624	     10.30003456	     19.29044753	     -7.49999987	    -15.82284221	     -4.31122501	     -6.55494559	     -3.95315772	     -3.76122004	    -34.58036340	     50.39299819	     92.46879546	     15.49541078	     -9.29321413	    -20.38993178	     38.38649814	     87.27828232
      1.96000000	     -4.46904489	      3.16067951	     92.74788969	     -0.24228580	      0.95553040	     -1.24992777	     24.01245831	    -10.00171580	    -13.71709227	     35.10961390	      0.61277836	      2.88526147	    -19.20232527	     -7.49999987	    -12.46763325	      9.42989603	    -14.85422194	      5.25929437	      0.09179200	     10.48817534	     19.04216332	     -7.49999987	    -16.20994547	     -4.28209157	     -7.09756796	     -4.31558968	     -3.69778323	    -34.83137860	     50.49166006	     90.32046818	     16.41577524	     -9.37710705	    -19.44699441	     39.00645553	     85.36094106
      1.97000000	     -4.57782772	      3.32369576	     93.37457494	     -0.24304937	      0.95388680	     -1.26113522	     23.99127484	     -9.87901694	    -15.04553509	     31.78330151	      0.55472326	      3.56972220	    -16.58038332	     -7.49999987	    -13.45367996	      9.34607244	    -14.55361904	      5.32609882	      0.09295796	     10.97041664	     19.65811354	     -7.49999987	    -16.55035791	     -4.35749862	     -7.62421782	     -4.58026886	     -3.48549637	    -35.06953089	     50.38250855	     89.28121710	     17.27960700	     -9.73617611	    -18.27629497	     39.64123470	     84.30195124
      1.98000000	     -4.90756439	      2.79994996	     93.76279159	     -0.24332180	      0.95104836	     -1.27179287	     24.93448603	     -9.69461407	    -15.31551676	     28.66763931	      0.50034469	      3.83331888	    -15.09108703	     -7.49999987	    -13.54647002	      9.56191133	    -14.20911901	      5.61989614	      0.09808569	     11.39137796	     19.69319197	     -7.49999987	    -16.10812653	     -4.76938018	     -8.05968433	     -4.84686092	     -3.27722883	    -35.15384015	     50.17895071	     89.25349156	     18.04293131	     -9.93588458	    -18.00189477	     40.09705121	     84.31646185
      1.99000000	     -4.71047602	      3.28202318	     94.41730441	     -0.24400581	      0.94997992	     -1.28334701	     24.39772755	     -9.22691480	    -17.07194596	     25.42913965	      0.44382221	      5.00661882	     -9.86525719	     -7.49999987	    -14.71798358	      9.08325864	    -14.08113789	      5.97370972	      0.10426090	     11.92473888	     19.78003811	     -7.49999987	    -16.76543732	     -4.42537676	     -8.49345217	     -4.86497829	     -2.99119563	    -36.08968230	     49.88676130	     90.16965254	     18.80838424	    -10.27611654	    -16.79089590	     40.63483818	     85.20398201
      2.00000000	     -4.81942039	      3.11467238	     94.75561592	     -0.24415274	      0.94772137	     -1.29439064	     24.84243067	     -8.84941758	    -17.70548330	     22.67824160	      0.39580998	      5.49638943	     -5.89948704	     -7.49999987	    -15.17238748	      9.05638089	    -13.86366171	      6.31318944	      0.11018594	     12.20782469	     19.31608077	     -7.49999987	    -16.74848382	     -4.57059630	     -8.68456607	     -5.00251172	     -2.75846402	    -36.66763820	     49.61582108	     91.21759776	     19.55216717	    -10.55724219	    -15.83786190	     41.09804445	     85.57323299
      2.01000000	     -4.80487893	      2.90803240	     95.14370915	     -0.24412747	      0.94554920	     -1.30544004	     25.24922848	     -8.35055769	    -18.33907933	     20.11817229	      0.35112835	      5.86511192	     -1.97609358	     -7.49999987	    -15.36136991	      8.82228819	    -13.67737157	      7.07299647	      0.12344708	     12.76654904	     18.89132461	     -7.49999987	    -16.67173477	     -4.59526350	     -8.92405218	     -5.08770438	     -2.49450516	    -37.16722171	     49.31448378	     91.43456918	     20.24123374	    -10.77320202	    -15.09681328	     41.46954345	     85.23889036
      2.02000000	     -4.80943245	      2.65666088	     95.54179081	     -0.24406616	      0.94342169	     -1.31649429	     25.71013426	     -7.95592905	    -19.10042805	     17.96054362	      0.31347062	      6.24686405	      1.84048049	     -7.49999987	    -15.45775872	      8.57803266	    -13.59693901	      7.91119578	      0.13807641	     13.21169243	     18.49417569	     -7.49999987	    -16.55102173	     -4.62436093	     -9.11262170	     -5.17459050	     -2.22205546	    -37.72628133	     48.97200619	     90.88512316	     21.01046342	    -11.00831491	    -14.18045401	     41.76073035	     84.32451877
      2.03000000	     -4.57693016	      2.32627646	     95.71732079	     -0.24339554	      0.94112624	     -1.32784118	     26.14618767	     -7.15302828	    -19.42872570	     15.79742729	      0.27571712	      6.17041247	      4.68385698	     -7.49999987	    -15.30035424	      8.06112357	    -13.79919748	      9.04754809	      0.15790950	     13.78665621	     18.29480794	     -7.49999987	    -16.25076528	     -4.46122912	     -9.14475169	     -5.18952787	     -1.98157429	    -38.26574183	     48.58245222	     91.60069268	     21.49487543	    -11.12451249	    -13.80354859	     42.13613709	     84.32661158
      2.04000000	     -4.38651753	      1.87627315	     95.95366728	     -0.24293925	      0.93885952	     -1.33918909	     26.71550150	     -6.53534579	    -19.92790958	     14.07594236	      0.24567154	      5.76551098	      7.15368196	     -7.49999987	    -15.01758846	      7.59198249	    -13.66707083	     10.19951765	      0.17801517	     14.12741181	     17.80749252	     -7.49999987	    -15.83995174	     -4.33369244	     -9.15650769	     -5.06986031	     -1.64123207	    -39.44655150	     47.98023210	     94.48846245	     21.99793675	    -11.12333450	    -13.77079918	     42.41880608	     86.68661153
      2.05000000	     -4.14785100	      1.62952983	     96.10642157	     -0.24277547	      0.93688144	     -1.35101895	     27.01132532	     -5.85886267	    -20.21001063	     12.70524423	      0.22174834	      5.17590793	      8.87786637	     -7.49999987	    -15.00147635	      7.06974829	    -13.77952674	     11.29717046	      0.19717282	     14.30962044	     17.77314945	     -7.49999987	    -15.57703283	     -4.06693192	     -9.05031576	     -5.25864315	     -1.63719598	    -39.53619016	     47.70612834	     92.97838474	     22.33197973	    -11.09853760	    -13.19033902	     42.72704982	     85.13184328
      2.06000000	     -3.86252244	      1.44929016	     96.28675546	     -0.24261591	      0.93502490	     -1.36330309	     27.34661041	     -5.25397466	    -20.26017975	     12.12914812	      0.21169357	      4.72495404	      9.68179551	     -7.49999987	    -15.09937340	      6.47109163	    -13.68476605	     12.31444427	      0.21492760	     14.32025061	     17.57343263	     -7.49999987	    -15.33814176	     -3.73267696	     -8.88483600	     -5.46764338	     -1.61093035	    -39.89518092	     47.46735969	     93.02991582	     22.66722271	    -10.89554809	    -13.05097377	     42.94044639	     85.29172375
      2.07000000	     -3.65267394	      1.45271427	     96.45339166	     -0.24299346	      0.93356310	     -1.37605050	     27.60036745	     -4.85751064	    -20.20436071	     12.37695858	      0.21601868	      4.42610928	      9.76873207	     -7.49999987	    -15.53835533	      6.00351438	    -13.44133131	     13.07462084	      0.22819518	     13.88100796	     17.47134988	     -7.49999987	    -15.22221789	     -3.37795700	     -8.76423462	     -5.67315333	     -1.72022959	    -40.11421836	     47.14432053	     93.05473295	     22.82331652	    -10.64898407	    -12.95228419	     43.14468645	     85.36525806
      2.08000000	     -3.34024756	      1.55760042	     96.73910332	     -0.24357080	      0.93236845	     -1.38948650	     27.61954282	     -4.42441604	    -20.08147651	     12.92616463	      0.22560413	      3.94434898	      9.39873122	     -7.49999987	    -16.05529232	      5.33762812	    -13.14046949	     13.93418174	      0.24319735	     13.41827728	     17.50079069	     -7.49999987	    -15.11438688	     -2.86072677	     -8.72117784	     -5.88678448	     -1.82216158	    -40.53780570	     46.81413687	     93.09013616	     22.82699258	    -10.37006362	    -12.97196734	     43.34250128	     85.47087100
      2.09000000	     -2.98837085	      1.74187777	     97.01245687	     -0.24418555	      0.93143911	     -1.40341337	     27.36817000	     -3.90926484	    -19.65908317	     13.52333593	      0.23602674	      3.23580481	      8.18971735	     -7.49999987	    -16.73089815	      4.62169860	    -12.88343099	     14.65749214	      0.25582150	     12.57783031	     17.57584532	     -7.49999987	    -15.01869696	     -2.28630869	     -8.68219588	     -6.01549568	     -1.87396462	    -41.17283638	     46.39384639	     93.20302455	     22.64761341	    -10.06754532	    -13.14338645	     43.53807173	     85.67279949
